<svg viewBox="0 0 400 300" xmlns="http://www.w3.org/2000/svg">
  <defs>
    <linearGradient id="bgGradient" x1="0%" y1="0%" x2="100%" y2="100%">
      <stop offset="0%" style="stop-color:#1a365d"/>
      <stop offset="100%" style="stop-color:#2d5a87"/>
    </linearGradient>
    <linearGradient id="carGradient" x1="0%" y1="0%" x2="100%" y2="100%">
      <stop offset="0%" style="stop-color:#e53e3e"/>
      <stop offset="100%" style="stop-color:#c53030"/>
    </linearGradient>
    <linearGradient id="shieldGradient" x1="0%" y1="0%" x2="100%" y2="100%">
      <stop offset="0%" style="stop-color:#38a169"/>
      <stop offset="100%" style="stop-color:#2f855a"/>
    </linearGradient>
    <filter id="glow">
      <feGaussianBlur stdDeviation="2" result="coloredBlur"/>
      <feMerge> 
        <feMergeNode in="coloredBlur"/>
        <feMergeNode in="SourceGraphic"/>
      </feMerge>
    </filter>
    <filter id="shadow">
      <feDropShadow dx="2" dy="2" stdDeviation="3" flood-opacity="0.3"/>
    </filter>
  </defs>
  
  <!-- ë°°ê²½ -->
  <rect width="400" height="300" fill="url(#bgGradient)"/>
  
  <!-- ì£¼ì°¨ì„  íŒ¨í„´ -->
  <g opacity="0.2">
    <line x1="50" y1="220" x2="150" y2="220" stroke="#ffffff" stroke-width="3" stroke-dasharray="10,5"/>
    <line x1="250" y1="220" x2="350" y2="220" stroke="#ffffff" stroke-width="3" stroke-dasharray="10,5"/>
    <line x1="50" y1="250" x2="150" y2="250" stroke="#ffffff" stroke-width="3" stroke-dasharray="10,5"/>
    <line x1="250" y1="250" x2="350" y2="250" stroke="#ffffff" stroke-width="3" stroke-dasharray="10,5"/>
  </g>
  
  <!-- ì£¼ì°¨ëœ ì°¨ëŸ‰ (ì™¼ìª½) -->
  <g transform="translate(80, 180)">
    <rect x="0" y="0" width="60" height="30" rx="5" fill="#4a5568" filter="url(#shadow)"/>
    <rect x="5" y="5" width="15" height="8" rx="2" fill="#63b3ed" opacity="0.8"/>
    <rect x="40" y="5" width="15" height="8" rx="2" fill="#63b3ed" opacity="0.8"/>
    <circle cx="12" cy="32" r="6" fill="#2d3748"/>
    <circle cx="48" cy="32" r="6" fill="#2d3748"/>
    <circle cx="12" cy="32" r="3" fill="#4a5568"/>
    <circle cx="48" cy="32" r="3" fill="#4a5568"/>
  </g>
  
  <!-- ì ‘ì´‰ ì°¨ëŸ‰ (ì¤‘ì•™) -->
  <g transform="translate(170, 140)">
    <rect x="0" y="0" width="60" height="30" rx="5" fill="url(#carGradient)" filter="url(#shadow)"/>
    <rect x="5" y="5" width="15" height="8" rx="2" fill="#fed7d7" opacity="0.9"/>
    <rect x="40" y="5" width="15" height="8" rx="2" fill="#fed7d7" opacity="0.9"/>
    <circle cx="12" cy="32" r="6" fill="#2d3748"/>
    <circle cx="48" cy="32" r="6" fill="#2d3748"/>
    <circle cx="12" cy="32" r="3" fill="#4a5568"/>
    <circle cx="48" cy="32" r="3" fill="#4a5568"/>
    
    <!-- ì¶©ëŒ í‘œì‹œ -->
    <g transform="translate(30, -10)">
      <circle cx="0" cy="0" r="15" fill="#fbb6ce" opacity="0.6"/>
      <text x="0" y="5" text-anchor="middle" fill="#e53e3e" font-size="20" font-weight="bold">!</text>
    </g>
  </g>
  
  <!-- ì´ë™ ë°©í–¥ í™”ì‚´í‘œ -->
  <g opacity="0.8">
    <path d="M150 155 L170 155" stroke="#d69e2e" stroke-width="4" marker-end="url(#arrow)"/>
    <defs>
      <marker id="arrow" markerWidth="10" markerHeight="10" refX="9" refY="3" orient="auto" markerUnits="strokeWidth">
        <path d="M0,0 L0,6 L9,3 z" fill="#d69e2e"/>
      </marker>
    </defs>
  </g>
  
  <!-- ë³´í—˜ ì‹¤ë“œ ì•„ì´ì½˜ -->
  <g transform="translate(280, 120)">
    <path d="M30,10 L40,15 L40,35 Q40,45 30,50 Q20,45 20,35 L20,15 Z" 
          fill="url(#shieldGradient)" filter="url(#glow)"/>
    <path d="M30,20 L35,25 L32,32 L28,29 L25,35 L30,38 L35,35 L32,29 L38,25 Z" 
          fill="#ffffff" opacity="0.9"/>
    <text x="30" y="30" text-anchor="middle" fill="#ffffff" font-size="12" font-weight="bold">ë³´í—˜</text>
  </g>
  
  <!-- ê²½ê³  í‘œì‹œë“¤ -->
  <g opacity="0.7">
    <circle cx="60" cy="120" r="4" fill="#d69e2e"/>
    <circle cx="340" cy="180" r="3" fill="#d69e2e"/>
    <circle cx="100" cy="80" r="3.5" fill="#d69e2e"/>
  </g>
  
  <!-- ì²´í¬ë¦¬ìŠ¤íŠ¸ ì•„ì´ì½˜ -->
  <g transform="translate(320, 200)">
    <rect x="0" y="0" width="25" height="30" rx="3" fill="#ffffff" opacity="0.9"/>
    <line x1="5" y1="8" x2="20" y2="8" stroke="#1a365d" stroke-width="2"/>
    <line x1="5" y1="15" x2="20" y2="15" stroke="#1a365d" stroke-width="2"/>
    <line x1="5" y1="22" x2="20" y2="22" stroke="#1a365d" stroke-width="2"/>
    <circle cx="8" cy="8" r="2" fill="#38a169"/>
    <circle cx="8" cy="15" r="2" fill="#38a169"/>
    <circle cx="8" cy="22" r="2" fill="#d69e2e"/>
  </g>
  
  <!-- ì œëª© í…ìŠ¤íŠ¸ -->
  <text x="200" y="40" text-anchor="middle" fill="#ffffff" font-size="18" font-weight="bold">
    ì£¼ì°¨ì ‘ì´‰ì‚¬ê³ 
  </text>
  <text x="200" y="60" text-anchor="middle" fill="#e2e8f0" font-size="14" font-weight="600">
    ë³´í—˜ì²˜ë¦¬ ë°©ë²•
  </text>
  
  <!-- í•˜ë‹¨ ì•ˆë‚´ ì•„ì´ì½˜ë“¤ -->
  <g transform="translate(50, 270)">
    <circle cx="0" cy="0" r="8" fill="#38a169" opacity="0.8"/>
    <path d="M-3,-1 L0,2 L4,-2" stroke="#ffffff" stroke-width="2" fill="none"/>
  </g>
  <g transform="translate(120, 270)">
    <circle cx="0" cy="0" r="8" fill="#d69e2e" opacity="0.8"/>
    <text x="0" y="3" text-anchor="middle" fill="#ffffff" font-size="10" font-weight="bold">!</text>
  </g>
  <g transform="translate(280, 270)">
    <circle cx="0" cy="0" r="8" fill="#1a365d" opacity="0.8"/>
    <text x="0" y="3" text-anchor="middle" fill="#ffffff" font-size="8" font-weight="bold">ë²•</text>
  </g>
  <g transform="translate(350, 270)">
    <circle cx="0" cy="0" r="8" fill="#2d5a87" opacity="0.8"/>
    <text x="0" y="3" text-anchor="middle" fill="#ffffff" font-size="8" font-weight="bold">ðŸ“ž</text>
  </g>
  
  <!-- í…Œë‘ë¦¬ ìž¥ì‹ -->
  <rect x="2" y="2" width="396" height="296" fill="none" stroke="#4a5568" stroke-width="2" opacity="0.5" rx="8"/>
</svg>
